<svg xmlns="http://www.w3.org/2000/svg" width="1024" height="1024" viewBox="0 0 1024 1024" role="img" aria-label="LaunchpadPro logo">
  <defs>
    <linearGradient id="body" x1="214" y1="146" x2="812" y2="862" gradientUnits="userSpaceOnUse">
      <stop offset="0" stop-color="#FFFFFF"/>
      <stop offset="0.52" stop-color="#F8F8F7"/>
      <stop offset="1" stop-color="#E8E8E6"/>
    </linearGradient>

    <linearGradient id="bodyEdge" x1="242" y1="156" x2="792" y2="846" gradientUnits="userSpaceOnUse">
      <stop offset="0" stop-color="#FFFFFF" stop-opacity="0.9"/>
      <stop offset="0.62" stop-color="#D8D8D5" stop-opacity="0.52"/>
      <stop offset="1" stop-color="#BFC0BD" stop-opacity="0.42"/>
    </linearGradient>

    <linearGradient id="search" x1="308" y1="240" x2="716" y2="324" gradientUnits="userSpaceOnUse">
      <stop offset="0" stop-color="#D9DADB"/>
      <stop offset="0.55" stop-color="#B9BBBE"/>
      <stop offset="1" stop-color="#A7A9AC"/>
    </linearGradient>

    <linearGradient id="searchShine" x1="342" y1="252" x2="672" y2="252" gradientUnits="userSpaceOnUse">
      <stop offset="0" stop-color="#FFFFFF" stop-opacity="0.52"/>
      <stop offset="1" stop-color="#FFFFFF" stop-opacity="0"/>
    </linearGradient>

    <linearGradient id="orangeTile" x1="292" y1="404" x2="392" y2="504" gradientUnits="userSpaceOnUse">
      <stop offset="0" stop-color="#FFBE52"/>
      <stop offset="1" stop-color="#FF6A2F"/>
    </linearGradient>

    <linearGradient id="pinkTile" x1="462" y1="404" x2="562" y2="504" gradientUnits="userSpaceOnUse">
      <stop offset="0" stop-color="#FF72CD"/>
      <stop offset="1" stop-color="#EE2B91"/>
    </linearGradient>

    <linearGradient id="greenTile" x1="632" y1="404" x2="732" y2="504" gradientUnits="userSpaceOnUse">
      <stop offset="0" stop-color="#1BE5AD"/>
      <stop offset="1" stop-color="#00B981"/>
    </linearGradient>

    <linearGradient id="violetTile" x1="292" y1="584" x2="392" y2="684" gradientUnits="userSpaceOnUse">
      <stop offset="0" stop-color="#E879FF"/>
      <stop offset="1" stop-color="#A95BFF"/>
    </linearGradient>

    <linearGradient id="blueTile" x1="462" y1="584" x2="562" y2="684" gradientUnits="userSpaceOnUse">
      <stop offset="0" stop-color="#70D7FF"/>
      <stop offset="1" stop-color="#27AEEB"/>
    </linearGradient>

    <linearGradient id="grayTile" x1="632" y1="584" x2="732" y2="684" gradientUnits="userSpaceOnUse">
      <stop offset="0" stop-color="#DCDDDA"/>
      <stop offset="1" stop-color="#AEB0AD"/>
    </linearGradient>

    <filter id="bodyShadow" x="-14%" y="-12%" width="128%" height="134%">
      <feDropShadow dx="0" dy="26" stdDeviation="28" flood-color="#000000" flood-opacity="0.25"/>
      <feDropShadow dx="0" dy="5" stdDeviation="7" flood-color="#000000" flood-opacity="0.1"/>
    </filter>

    <filter id="softInset" x="-10%" y="-10%" width="120%" height="130%">
      <feDropShadow dx="0" dy="3" stdDeviation="3" flood-color="#000000" flood-opacity="0.16"/>
      <feDropShadow dx="0" dy="-2" stdDeviation="2" flood-color="#FFFFFF" flood-opacity="0.76"/>
    </filter>

    <filter id="tileShadow" x="-34%" y="-34%" width="168%" height="178%">
      <feDropShadow dx="0" dy="9" stdDeviation="8" flood-color="#000000" flood-opacity="0.14"/>
    </filter>

    <filter id="tinyHighlight" x="-20%" y="-20%" width="140%" height="140%">
      <feGaussianBlur stdDeviation="1.2"/>
    </filter>
  </defs>

  <rect width="1024" height="1024" fill="none"/>

  <g filter="url(#bodyShadow)">
    <rect x="168" y="130" width="688" height="724" rx="154" fill="url(#body)"/>
    <rect x="173" y="135" width="678" height="714" rx="150" fill="none" stroke="url(#bodyEdge)" stroke-width="10"/>
  </g>

  <path d="M246 194C306 156 394 148 512 148C634 148 724 158 782 198" fill="none" stroke="#FFFFFF" stroke-width="9" stroke-linecap="round" opacity="0.64"/>

  <g filter="url(#softInset)">
    <rect x="308" y="244" width="408" height="78" rx="39" fill="url(#search)"/>
    <rect x="318" y="252" width="388" height="22" rx="11" fill="url(#searchShine)" opacity="0.82"/>
  </g>

  <g fill="none" stroke="#F8FAFB" stroke-width="12" stroke-linecap="round" stroke-linejoin="round" opacity="0.96">
    <circle cx="356" cy="283" r="20"/>
    <path d="M370 297L390 317"/>
  </g>

  <g fill="none" stroke="#8A8D91" stroke-width="6" stroke-linecap="round" stroke-linejoin="round" opacity="0.62">
    <circle cx="356" cy="283" r="20"/>
    <path d="M370 297L390 317"/>
  </g>

  <g filter="url(#tileShadow)">
    <rect x="292" y="404" width="100" height="100" rx="24" fill="url(#orangeTile)"/>
    <rect x="462" y="404" width="100" height="100" rx="24" fill="url(#pinkTile)"/>
    <rect x="632" y="404" width="100" height="100" rx="24" fill="url(#greenTile)"/>

    <rect x="292" y="584" width="100" height="100" rx="24" fill="url(#violetTile)"/>
    <rect x="462" y="584" width="100" height="100" rx="24" fill="url(#blueTile)"/>
    <rect x="632" y="584" width="100" height="100" rx="24" fill="url(#grayTile)"/>
  </g>

  <g opacity="0.42" filter="url(#tinyHighlight)">
    <path d="M312 424H358" stroke="#FFFFFF" stroke-width="8" stroke-linecap="round"/>
    <path d="M482 424H528" stroke="#FFFFFF" stroke-width="8" stroke-linecap="round"/>
    <path d="M652 424H698" stroke="#FFFFFF" stroke-width="8" stroke-linecap="round"/>
    <path d="M312 604H358" stroke="#FFFFFF" stroke-width="8" stroke-linecap="round"/>
    <path d="M482 604H528" stroke="#FFFFFF" stroke-width="8" stroke-linecap="round"/>
    <path d="M652 604H698" stroke="#FFFFFF" stroke-width="8" stroke-linecap="round"/>
  </g>

  <path d="M342 774C438 804 586 804 682 774" fill="none" stroke="#C8C9C6" stroke-width="10" stroke-linecap="round" opacity="0.34"/>
</svg>
