<svg xmlns="http://www.w3.org/2000/svg" width="1024" height="1024" viewBox="0 0 1024 1024" role="img" aria-label="LaunchpadPro logo">
  <defs>
    <linearGradient id="body" x1="112" y1="54" x2="902" y2="970" gradientUnits="userSpaceOnUse">
      <stop offset="0" stop-color="#FFFFFF"/>
      <stop offset="0.54" stop-color="#F8F8F7"/>
      <stop offset="1" stop-color="#E6E6E3"/>
    </linearGradient>

    <linearGradient id="search" x1="254" y1="214" x2="772" y2="326" gradientUnits="userSpaceOnUse">
      <stop offset="0" stop-color="#D7D8DA"/>
      <stop offset="0.56" stop-color="#B7B9BC"/>
      <stop offset="1" stop-color="#A5A7AA"/>
    </linearGradient>

    <linearGradient id="searchShine" x1="278" y1="226" x2="736" y2="226" gradientUnits="userSpaceOnUse">
      <stop offset="0" stop-color="#FFFFFF" stop-opacity="0.56"/>
      <stop offset="1" stop-color="#FFFFFF" stop-opacity="0"/>
    </linearGradient>

    <linearGradient id="orangeTile" x1="242" y1="392" x2="372" y2="522" gradientUnits="userSpaceOnUse">
      <stop offset="0" stop-color="#FFC65D"/>
      <stop offset="1" stop-color="#FF6F35"/>
    </linearGradient>

    <linearGradient id="pinkTile" x1="447" y1="392" x2="577" y2="522" gradientUnits="userSpaceOnUse">
      <stop offset="0" stop-color="#FF78D3"/>
      <stop offset="1" stop-color="#ED2C92"/>
    </linearGradient>

    <linearGradient id="greenTile" x1="652" y1="392" x2="782" y2="522" gradientUnits="userSpaceOnUse">
      <stop offset="0" stop-color="#1FE5B0"/>
      <stop offset="1" stop-color="#00B97E"/>
    </linearGradient>

    <linearGradient id="violetTile" x1="242" y1="600" x2="372" y2="730" gradientUnits="userSpaceOnUse">
      <stop offset="0" stop-color="#EA7BFF"/>
      <stop offset="1" stop-color="#A85BFF"/>
    </linearGradient>

    <linearGradient id="blueTile" x1="447" y1="600" x2="577" y2="730" gradientUnits="userSpaceOnUse">
      <stop offset="0" stop-color="#73DAFF"/>
      <stop offset="1" stop-color="#27AEEB"/>
    </linearGradient>

    <linearGradient id="grayTile" x1="652" y1="600" x2="782" y2="730" gradientUnits="userSpaceOnUse">
      <stop offset="0" stop-color="#DCDDD9"/>
      <stop offset="1" stop-color="#AEB0AD"/>
    </linearGradient>

    <filter id="bodyShadow" x="-10%" y="-9%" width="120%" height="124%">
      <feDropShadow dx="0" dy="20" stdDeviation="20" flood-color="#000000" flood-opacity="0.20"/>
      <feDropShadow dx="0" dy="4" stdDeviation="6" flood-color="#000000" flood-opacity="0.08"/>
    </filter>

    <filter id="softInset" x="-10%" y="-10%" width="120%" height="130%">
      <feDropShadow dx="0" dy="3" stdDeviation="3" flood-color="#000000" flood-opacity="0.16"/>
      <feDropShadow dx="0" dy="-2" stdDeviation="2" flood-color="#FFFFFF" flood-opacity="0.78"/>
    </filter>

    <filter id="tileShadow" x="-30%" y="-30%" width="160%" height="170%">
      <feDropShadow dx="0" dy="11" stdDeviation="8" flood-color="#000000" flood-opacity="0.15"/>
    </filter>

    <filter id="tinyHighlight" x="-20%" y="-20%" width="140%" height="140%">
      <feGaussianBlur stdDeviation="1.4"/>
    </filter>
  </defs>

  <rect width="1024" height="1024" fill="none"/>

  <g filter="url(#bodyShadow)">
    <rect x="58" y="48" width="908" height="920" rx="224" fill="url(#body)"/>
  </g>

  <path d="M166 138C254 88 366 72 512 72C664 72 776 90 858 142" fill="none" stroke="#FFFFFF" stroke-width="10" stroke-linecap="round" opacity="0.54"/>

  <g filter="url(#softInset)">
    <rect x="256" y="222" width="512" height="96" rx="48" fill="url(#search)"/>
    <rect x="270" y="232" width="484" height="26" rx="13" fill="url(#searchShine)" opacity="0.84"/>
  </g>

  <g fill="none" stroke="#F8FAFB" stroke-width="14" stroke-linecap="round" stroke-linejoin="round" opacity="0.96">
    <circle cx="318" cy="270" r="24"/>
    <path d="M335 287L360 312"/>
  </g>

  <g fill="none" stroke="#8A8D91" stroke-width="7" stroke-linecap="round" stroke-linejoin="round" opacity="0.62">
    <circle cx="318" cy="270" r="24"/>
    <path d="M335 287L360 312"/>
  </g>

  <g filter="url(#tileShadow)">
    <rect x="242" y="392" width="130" height="130" rx="30" fill="url(#orangeTile)"/>
    <rect x="447" y="392" width="130" height="130" rx="30" fill="url(#pinkTile)"/>
    <rect x="652" y="392" width="130" height="130" rx="30" fill="url(#greenTile)"/>

    <rect x="242" y="600" width="130" height="130" rx="30" fill="url(#violetTile)"/>
    <rect x="447" y="600" width="130" height="130" rx="30" fill="url(#blueTile)"/>
    <rect x="652" y="600" width="130" height="130" rx="30" fill="url(#grayTile)"/>
  </g>

  <g opacity="0.42" filter="url(#tinyHighlight)">
    <path d="M268 414H328" stroke="#FFFFFF" stroke-width="9" stroke-linecap="round"/>
    <path d="M473 414H533" stroke="#FFFFFF" stroke-width="9" stroke-linecap="round"/>
    <path d="M678 414H738" stroke="#FFFFFF" stroke-width="9" stroke-linecap="round"/>
    <path d="M268 622H328" stroke="#FFFFFF" stroke-width="9" stroke-linecap="round"/>
    <path d="M473 622H533" stroke="#FFFFFF" stroke-width="9" stroke-linecap="round"/>
    <path d="M678 622H738" stroke="#FFFFFF" stroke-width="9" stroke-linecap="round"/>
  </g>

  <path d="M278 814C382 850 642 850 746 814" fill="none" stroke="#C8C9C6" stroke-width="10" stroke-linecap="round" opacity="0.32"/>
</svg>
